<mxfile host="app.diagrams.net" modified="2020-12-29T23:25:40.666Z" agent="5.0 (Windows)" etag="A0sQJPvP4tS4eqER0tsi" version="14.1.3" type="github">
  <diagram id="C5RBs43oDa-KdzZeNtuy" name="Page-1">
    <mxGraphModel dx="768" dy="1882" grid="1" gridSize="10" guides="1" tooltips="1" connect="1" arrows="1" fold="1" page="1" pageScale="1" pageWidth="827" pageHeight="1169" math="0" shadow="0">
      <root>
        <mxCell id="WIyWlLk6GJQsqaUBKTNV-0" />
        <mxCell id="WIyWlLk6GJQsqaUBKTNV-1" parent="WIyWlLk6GJQsqaUBKTNV-0" />
        <mxCell id="EdV5Q9cHOYFAVtH6rfuM-53" value="" style="shape=ext;double=1;whiteSpace=wrap;html=1;aspect=fixed;" parent="WIyWlLk6GJQsqaUBKTNV-1" vertex="1">
          <mxGeometry x="70" y="390" width="450" height="450" as="geometry" />
        </mxCell>
        <mxCell id="EdV5Q9cHOYFAVtH6rfuM-50" value="" style="shape=ext;double=1;whiteSpace=wrap;html=1;aspect=fixed;" parent="WIyWlLk6GJQsqaUBKTNV-1" vertex="1">
          <mxGeometry x="70" y="-70" width="450" height="450" as="geometry" />
        </mxCell>
        <mxCell id="EdV5Q9cHOYFAVtH6rfuM-47" value="" style="shape=ext;double=1;whiteSpace=wrap;html=1;aspect=fixed;" parent="WIyWlLk6GJQsqaUBKTNV-1" vertex="1">
          <mxGeometry x="70" y="-650" width="570" height="570" as="geometry" />
        </mxCell>
        <mxCell id="EdV5Q9cHOYFAVtH6rfuM-2" value="" style="shape=ext;double=1;rounded=1;whiteSpace=wrap;html=1;" parent="WIyWlLk6GJQsqaUBKTNV-1" vertex="1">
          <mxGeometry x="90" y="-335" width="190" height="210" as="geometry" />
        </mxCell>
        <mxCell id="EdV5Q9cHOYFAVtH6rfuM-3" value="" style="shape=ext;double=1;rounded=1;whiteSpace=wrap;html=1;" parent="WIyWlLk6GJQsqaUBKTNV-1" vertex="1">
          <mxGeometry x="180" y="20" width="250" height="310" as="geometry" />
        </mxCell>
        <mxCell id="EdV5Q9cHOYFAVtH6rfuM-4" value="" style="shape=ext;double=1;rounded=1;whiteSpace=wrap;html=1;" parent="WIyWlLk6GJQsqaUBKTNV-1" vertex="1">
          <mxGeometry x="170" y="470" width="250" height="350" as="geometry" />
        </mxCell>
        <mxCell id="EdV5Q9cHOYFAVtH6rfuM-5" value="Home" style="text;strokeColor=none;fillColor=none;html=1;fontSize=24;fontStyle=1;verticalAlign=middle;align=center;" parent="WIyWlLk6GJQsqaUBKTNV-1" vertex="1">
          <mxGeometry x="135" y="-335" width="100" height="40" as="geometry" />
        </mxCell>
        <mxCell id="EdV5Q9cHOYFAVtH6rfuM-6" value="" style="line;strokeWidth=4;html=1;perimeter=backbonePerimeter;points=[];outlineConnect=0;" parent="WIyWlLk6GJQsqaUBKTNV-1" vertex="1">
          <mxGeometry x="90" y="-295" width="190" height="10" as="geometry" />
        </mxCell>
        <mxCell id="EdV5Q9cHOYFAVtH6rfuM-8" value="Review" style="text;strokeColor=none;fillColor=none;html=1;fontSize=24;fontStyle=1;verticalAlign=middle;align=center;" parent="WIyWlLk6GJQsqaUBKTNV-1" vertex="1">
          <mxGeometry x="190" y="20" width="230" height="40" as="geometry" />
        </mxCell>
        <mxCell id="EdV5Q9cHOYFAVtH6rfuM-9" value="" style="line;strokeWidth=4;html=1;perimeter=backbonePerimeter;points=[];outlineConnect=0;" parent="WIyWlLk6GJQsqaUBKTNV-1" vertex="1">
          <mxGeometry x="180" y="60" width="250" height="10" as="geometry" />
        </mxCell>
        <mxCell id="EdV5Q9cHOYFAVtH6rfuM-11" value="Reviews" style="text;strokeColor=none;fillColor=none;html=1;fontSize=24;fontStyle=1;verticalAlign=middle;align=center;" parent="WIyWlLk6GJQsqaUBKTNV-1" vertex="1">
          <mxGeometry x="245" y="470" width="100" height="40" as="geometry" />
        </mxCell>
        <mxCell id="EdV5Q9cHOYFAVtH6rfuM-12" value="" style="line;strokeWidth=4;html=1;perimeter=backbonePerimeter;points=[];outlineConnect=0;" parent="WIyWlLk6GJQsqaUBKTNV-1" vertex="1">
          <mxGeometry x="170" y="510" width="250" height="10" as="geometry" />
        </mxCell>
        <mxCell id="EdV5Q9cHOYFAVtH6rfuM-14" value="" style="shape=ext;double=1;rounded=1;whiteSpace=wrap;html=1;" parent="WIyWlLk6GJQsqaUBKTNV-1" vertex="1">
          <mxGeometry x="110" y="-270" width="60" height="35" as="geometry" />
        </mxCell>
        <mxCell id="EdV5Q9cHOYFAVtH6rfuM-16" value="" style="shape=ext;double=1;rounded=1;whiteSpace=wrap;html=1;" parent="WIyWlLk6GJQsqaUBKTNV-1" vertex="1">
          <mxGeometry x="200" y="-270" width="60" height="35" as="geometry" />
        </mxCell>
        <mxCell id="EdV5Q9cHOYFAVtH6rfuM-17" value="" style="shape=ext;double=1;rounded=1;whiteSpace=wrap;html=1;" parent="WIyWlLk6GJQsqaUBKTNV-1" vertex="1">
          <mxGeometry x="110" y="-195" width="60" height="35" as="geometry" />
        </mxCell>
        <mxCell id="EdV5Q9cHOYFAVtH6rfuM-18" value="" style="shape=ext;double=1;rounded=1;whiteSpace=wrap;html=1;" parent="WIyWlLk6GJQsqaUBKTNV-1" vertex="1">
          <mxGeometry x="204" y="-195" width="60" height="35" as="geometry" />
        </mxCell>
        <UserObject label="Item" placeholders="1" name="Variable" id="EdV5Q9cHOYFAVtH6rfuM-20">
          <mxCell style="text;html=1;strokeColor=none;fillColor=none;align=center;verticalAlign=middle;whiteSpace=wrap;overflow=hidden;" parent="WIyWlLk6GJQsqaUBKTNV-1" vertex="1">
            <mxGeometry x="100" y="-262.5" width="80" height="20" as="geometry" />
          </mxCell>
        </UserObject>
        <UserObject label="Item" placeholders="1" name="Variable" id="EdV5Q9cHOYFAVtH6rfuM-21">
          <mxCell style="text;html=1;strokeColor=none;fillColor=none;align=center;verticalAlign=middle;whiteSpace=wrap;overflow=hidden;" parent="WIyWlLk6GJQsqaUBKTNV-1" vertex="1">
            <mxGeometry x="194" y="-262.5" width="80" height="20" as="geometry" />
          </mxCell>
        </UserObject>
        <UserObject label="Item" placeholders="1" name="Variable" id="EdV5Q9cHOYFAVtH6rfuM-22">
          <mxCell style="text;html=1;strokeColor=none;fillColor=none;align=center;verticalAlign=middle;whiteSpace=wrap;overflow=hidden;" parent="WIyWlLk6GJQsqaUBKTNV-1" vertex="1">
            <mxGeometry x="194" y="-187.5" width="80" height="20" as="geometry" />
          </mxCell>
        </UserObject>
        <UserObject label="Item" placeholders="1" name="Variable" id="EdV5Q9cHOYFAVtH6rfuM-23">
          <mxCell style="text;html=1;strokeColor=none;fillColor=none;align=center;verticalAlign=middle;whiteSpace=wrap;overflow=hidden;" parent="WIyWlLk6GJQsqaUBKTNV-1" vertex="1">
            <mxGeometry x="100" y="-187.5" width="80" height="20" as="geometry" />
          </mxCell>
        </UserObject>
        <UserObject label="Name:" placeholders="1" name="Variable" id="EdV5Q9cHOYFAVtH6rfuM-24">
          <mxCell style="text;html=1;strokeColor=none;fillColor=none;align=center;verticalAlign=middle;whiteSpace=wrap;overflow=hidden;" parent="WIyWlLk6GJQsqaUBKTNV-1" vertex="1">
            <mxGeometry x="180" y="70" width="80" height="20" as="geometry" />
          </mxCell>
        </UserObject>
        <UserObject label="Surname:" placeholders="1" name="Variable" id="EdV5Q9cHOYFAVtH6rfuM-25">
          <mxCell style="text;html=1;strokeColor=none;fillColor=none;align=center;verticalAlign=middle;whiteSpace=wrap;overflow=hidden;" parent="WIyWlLk6GJQsqaUBKTNV-1" vertex="1">
            <mxGeometry x="190" y="115" width="80" height="20" as="geometry" />
          </mxCell>
        </UserObject>
        <UserObject label="Review:" placeholders="1" name="Variable" id="EdV5Q9cHOYFAVtH6rfuM-26">
          <mxCell style="text;html=1;strokeColor=none;fillColor=none;align=center;verticalAlign=middle;whiteSpace=wrap;overflow=hidden;" parent="WIyWlLk6GJQsqaUBKTNV-1" vertex="1">
            <mxGeometry x="190" y="160" width="80" height="20" as="geometry" />
          </mxCell>
        </UserObject>
        <mxCell id="EdV5Q9cHOYFAVtH6rfuM-27" value="" style="shape=ext;double=1;rounded=0;whiteSpace=wrap;html=1;" parent="WIyWlLk6GJQsqaUBKTNV-1" vertex="1">
          <mxGeometry x="200" y="90" width="210" height="20" as="geometry" />
        </mxCell>
        <mxCell id="EdV5Q9cHOYFAVtH6rfuM-28" value="" style="shape=ext;double=1;rounded=0;whiteSpace=wrap;html=1;" parent="WIyWlLk6GJQsqaUBKTNV-1" vertex="1">
          <mxGeometry x="200" y="135" width="210" height="20" as="geometry" />
        </mxCell>
        <mxCell id="EdV5Q9cHOYFAVtH6rfuM-29" value="" style="shape=ext;double=1;rounded=0;whiteSpace=wrap;html=1;" parent="WIyWlLk6GJQsqaUBKTNV-1" vertex="1">
          <mxGeometry x="200" y="180" width="210" height="90" as="geometry" />
        </mxCell>
        <mxCell id="EdV5Q9cHOYFAVtH6rfuM-30" value="Item Image" style="shape=ext;double=1;rounded=0;whiteSpace=wrap;html=1;" parent="WIyWlLk6GJQsqaUBKTNV-1" vertex="1">
          <mxGeometry x="187.5" y="560" width="215" height="90" as="geometry" />
        </mxCell>
        <mxCell id="EdV5Q9cHOYFAVtH6rfuM-31" value="Item Name" style="text;strokeColor=none;fillColor=none;html=1;fontSize=24;fontStyle=1;verticalAlign=middle;align=center;" parent="WIyWlLk6GJQsqaUBKTNV-1" vertex="1">
          <mxGeometry x="235" y="530" width="120" height="20" as="geometry" />
        </mxCell>
        <mxCell id="EdV5Q9cHOYFAVtH6rfuM-32" value="Review 1" style="shape=partialRectangle;whiteSpace=wrap;html=1;left=0;right=0;fillColor=none;" parent="WIyWlLk6GJQsqaUBKTNV-1" vertex="1">
          <mxGeometry x="170" y="660" width="250" height="30" as="geometry" />
        </mxCell>
        <mxCell id="EdV5Q9cHOYFAVtH6rfuM-33" value="Review 3" style="shape=partialRectangle;whiteSpace=wrap;html=1;left=0;right=0;fillColor=none;" parent="WIyWlLk6GJQsqaUBKTNV-1" vertex="1">
          <mxGeometry x="170" y="740" width="250" height="30" as="geometry" />
        </mxCell>
        <mxCell id="EdV5Q9cHOYFAVtH6rfuM-34" value="Review 2" style="shape=partialRectangle;whiteSpace=wrap;html=1;left=0;right=0;fillColor=none;" parent="WIyWlLk6GJQsqaUBKTNV-1" vertex="1">
          <mxGeometry x="170" y="700" width="250" height="30" as="geometry" />
        </mxCell>
        <mxCell id="EdV5Q9cHOYFAVtH6rfuM-36" value="" style="shape=image;html=1;verticalAlign=top;verticalLabelPosition=bottom;labelBackgroundColor=#ffffff;imageAspect=0;aspect=fixed;image=https://cdn4.iconfinder.com/data/icons/basic-user-interface-elements/700/zoom-in-plus-greater-128.png;rotation=-90;" parent="WIyWlLk6GJQsqaUBKTNV-1" vertex="1">
          <mxGeometry x="200" y="-320" width="98" height="98" as="geometry" />
        </mxCell>
        <mxCell id="EdV5Q9cHOYFAVtH6rfuM-38" value="" style="line;strokeWidth=4;html=1;perimeter=backbonePerimeter;points=[];outlineConnect=0;rotation=-45;" parent="WIyWlLk6GJQsqaUBKTNV-1" vertex="1">
          <mxGeometry x="264" y="-370" width="160" height="10" as="geometry" />
        </mxCell>
        <mxCell id="EdV5Q9cHOYFAVtH6rfuM-40" value="" style="shape=ext;double=1;rounded=1;whiteSpace=wrap;html=1;" parent="WIyWlLk6GJQsqaUBKTNV-1" vertex="1">
          <mxGeometry x="370" y="-570" width="200" height="180" as="geometry" />
        </mxCell>
        <mxCell id="EdV5Q9cHOYFAVtH6rfuM-41" value="Item Name" style="text;strokeColor=none;fillColor=none;html=1;fontSize=24;fontStyle=1;verticalAlign=middle;align=center;" parent="WIyWlLk6GJQsqaUBKTNV-1" vertex="1">
          <mxGeometry x="420" y="-570" width="100" height="40" as="geometry" />
        </mxCell>
        <mxCell id="EdV5Q9cHOYFAVtH6rfuM-42" value="" style="line;strokeWidth=4;html=1;perimeter=backbonePerimeter;points=[];outlineConnect=0;" parent="WIyWlLk6GJQsqaUBKTNV-1" vertex="1">
          <mxGeometry x="370" y="-530" width="200" height="10" as="geometry" />
        </mxCell>
        <mxCell id="EdV5Q9cHOYFAVtH6rfuM-44" value="Item Image" style="shape=ext;double=1;rounded=0;whiteSpace=wrap;html=1;" parent="WIyWlLk6GJQsqaUBKTNV-1" vertex="1">
          <mxGeometry x="391.25" y="-510" width="158.75" height="70" as="geometry" />
        </mxCell>
        <mxCell id="EdV5Q9cHOYFAVtH6rfuM-45" value="Reviews" style="shape=ext;double=1;rounded=1;whiteSpace=wrap;html=1;" parent="WIyWlLk6GJQsqaUBKTNV-1" vertex="1">
          <mxGeometry x="390" y="-430" width="70" height="30" as="geometry" />
        </mxCell>
        <mxCell id="EdV5Q9cHOYFAVtH6rfuM-46" value="Review" style="shape=ext;double=1;rounded=1;whiteSpace=wrap;html=1;" parent="WIyWlLk6GJQsqaUBKTNV-1" vertex="1">
          <mxGeometry x="480" y="-430" width="70" height="30" as="geometry" />
        </mxCell>
        <mxCell id="EdV5Q9cHOYFAVtH6rfuM-48" value="Part One" style="text;strokeColor=none;fillColor=none;html=1;fontSize=24;fontStyle=1;verticalAlign=middle;align=center;" parent="WIyWlLk6GJQsqaUBKTNV-1" vertex="1">
          <mxGeometry x="120" y="-640" width="470" height="40" as="geometry" />
        </mxCell>
        <mxCell id="EdV5Q9cHOYFAVtH6rfuM-49" value="" style="line;strokeWidth=2;html=1;" parent="WIyWlLk6GJQsqaUBKTNV-1" vertex="1">
          <mxGeometry x="70" y="-600" width="570" height="10" as="geometry" />
        </mxCell>
        <mxCell id="EdV5Q9cHOYFAVtH6rfuM-51" value="Part Two" style="text;strokeColor=none;fillColor=none;html=1;fontSize=24;fontStyle=1;verticalAlign=middle;align=center;" parent="WIyWlLk6GJQsqaUBKTNV-1" vertex="1">
          <mxGeometry x="70" y="-60" width="450" height="40" as="geometry" />
        </mxCell>
        <mxCell id="EdV5Q9cHOYFAVtH6rfuM-52" value="" style="line;strokeWidth=2;html=1;" parent="WIyWlLk6GJQsqaUBKTNV-1" vertex="1">
          <mxGeometry x="70" y="-20" width="450" height="10" as="geometry" />
        </mxCell>
        <mxCell id="EdV5Q9cHOYFAVtH6rfuM-54" value="Part Three" style="text;strokeColor=none;fillColor=none;html=1;fontSize=24;fontStyle=1;verticalAlign=middle;align=center;" parent="WIyWlLk6GJQsqaUBKTNV-1" vertex="1">
          <mxGeometry x="245" y="390" width="100" height="40" as="geometry" />
        </mxCell>
        <mxCell id="EdV5Q9cHOYFAVtH6rfuM-55" value="" style="line;strokeWidth=2;html=1;" parent="WIyWlLk6GJQsqaUBKTNV-1" vertex="1">
          <mxGeometry x="70" y="430" width="450" height="10" as="geometry" />
        </mxCell>
        <mxCell id="yYiLkjj7uHZ5WB8zR-aT-0" value="Submit" style="rounded=1;whiteSpace=wrap;html=1;" vertex="1" parent="WIyWlLk6GJQsqaUBKTNV-1">
          <mxGeometry x="340" y="280" width="70" height="20" as="geometry" />
        </mxCell>
      </root>
    </mxGraphModel>
  </diagram>
</mxfile>
